<svg version="1.1" id="Layer_1" xmlns="http://www.w3.org/2000/svg" xmlns:xlink="http://www.w3.org/1999/xlink" x="0px" y="0px"
	 width="100%" viewBox="0 0 681 128" enable-background="new 0 0 681 128" xml:space="preserve">
<path fill="#224A6A" opacity="1.000000" stroke="none" 
	d="
M1.000000,128.000000 
	C1.000000,97.312439 1.000000,66.624878 1.466781,35.483536 
	C102.369637,35.031181 202.805710,35.037609 303.241791,35.032761 
	C429.494537,35.026665 555.747253,35.011341 682.000000,35.000000 
	C682.000000,65.687561 682.000000,96.375122 681.540283,127.533112 
	C454.387054,128.002365 227.693527,128.001175 1.000000,128.000000 
M226.198410,94.391953 
	C228.325684,97.573036 230.666672,100.635025 232.523590,103.966789 
	C234.622421,107.732559 237.365540,108.480141 241.209381,106.933098 
	C241.209381,91.321205 241.209381,75.893921 241.209381,60.290901 
	C239.242004,60.290901 237.508789,60.290901 234.986359,60.290901 
	C234.986359,72.014854 234.986359,83.435249 234.986359,94.855644 
	C227.027695,84.609573 219.891052,74.381149 213.125290,63.913029 
	C210.753525,60.243385 208.212006,58.947002 204.143051,60.579327 
	C204.143051,76.158043 204.143051,91.571136 204.143051,107.273758 
	C206.113968,107.273758 207.831131,107.273758 210.245880,107.273758 
	C210.245880,95.496132 210.245880,84.037247 210.245880,72.578369 
	C210.569839,72.526863 210.893784,72.475365 211.217743,72.423859 
	C216.076126,79.547943 220.934525,86.672028 226.198410,94.391953 
M416.239746,101.184982 
	C416.234955,94.690704 416.426208,88.188843 416.175537,81.704063 
	C415.864685,73.663177 408.952881,69.000259 401.540955,71.799217 
	C398.981995,72.765556 396.717224,74.510902 394.317413,75.899208 
	C388.032959,69.692688 383.895935,69.444748 375.716400,74.168045 
	C373.148376,73.346542 371.293488,72.753174 369.064331,72.040070 
	C369.064331,84.435097 369.064331,95.832008 369.064331,107.153847 
	C373.142944,108.427834 374.951477,107.477989 374.765259,103.119652 
	C374.516724,97.303963 374.539490,91.457260 374.832245,85.643333 
	C375.123749,79.854576 378.616943,76.245270 383.235504,76.311829 
	C387.599701,76.374718 389.153503,78.880074 389.163513,85.922562 
	C389.173584,93.008667 389.165710,100.094795 389.165710,107.232826 
	C391.648132,107.232826 393.365692,107.232826 395.473175,107.232826 
	C395.473175,105.200714 395.461914,103.563278 395.475189,101.926041 
	C395.523743,95.934319 395.277161,89.919548 395.731537,83.958405 
	C396.086060,79.307144 400.041412,76.022263 404.117310,76.345238 
	C409.161469,76.744942 410.093536,80.340073 410.098358,84.524284 
	C410.099884,85.856438 410.103546,87.188599 410.103668,88.520752 
	C410.104218,94.770859 410.103882,101.020966 410.103882,107.295883 
	C412.513947,107.295883 414.102112,107.295883 416.239288,107.295883 
	C416.239288,105.342178 416.239288,103.718109 416.239746,101.184982 
M489.376343,108.812500 
	C489.513458,98.165642 489.707367,87.518852 489.720856,76.871841 
	C489.722687,75.427910 489.010590,72.886269 488.297394,72.762398 
	C486.723938,72.489120 484.938873,73.434029 482.521393,74.071404 
	C475.887665,69.897606 469.551086,70.008087 464.207764,74.930046 
	C458.496094,80.191223 456.821259,91.982857 461.194244,99.568001 
	C462.690796,102.163902 465.178070,105.428337 467.701599,105.930504 
	C472.724182,106.929985 478.085663,106.226372 483.680969,106.226372 
	C484.000458,109.902740 483.224762,113.736877 478.725250,115.313911 
	C474.358185,116.844498 470.033508,116.999077 466.404663,112.997696 
	C465.052826,111.507080 462.872864,110.767471 460.648743,109.432190 
	C460.278015,116.755478 463.789551,120.388397 470.890533,121.235870 
	C481.011780,122.443794 487.534088,118.334984 489.376343,108.812500 
M168.648010,108.092148 
	C171.611465,108.341866 174.582657,108.870064 177.536911,108.788177 
	C185.808548,108.558876 192.432159,103.905907 192.997604,96.053505 
	C193.850632,84.207092 193.220047,72.253853 193.220047,60.233250 
	C191.497742,60.233250 189.735748,60.233250 187.496765,60.233250 
	C187.496765,65.621620 187.577621,70.755928 187.475616,75.886604 
	C187.356750,81.863960 187.562515,87.905891 186.738846,93.795540 
	C185.827667,100.310875 181.785904,102.737000 174.369232,102.441040 
	C167.922699,102.183792 164.226181,99.222939 163.617691,92.971344 
	C163.071625,87.361084 163.165237,81.683876 163.081543,76.034653 
	C163.003891,70.794670 163.064972,65.552628 163.064972,60.247334 
	C160.522903,60.247334 158.757278,60.247334 157.228897,60.247334 
	C157.228897,72.134186 156.862747,83.756004 157.375214,95.338966 
	C157.653488,101.628807 161.517090,106.072876 168.648010,108.092148 
M287.755951,77.503349 
	C287.755951,87.409027 287.755951,97.314705 287.755951,107.261200 
	C290.210815,107.261200 291.951721,107.261200 294.197998,107.261200 
	C294.197998,100.687630 294.197998,94.448631 294.197998,87.596947 
	C297.810974,87.596947 300.935455,87.783058 304.028381,87.550240 
	C307.969849,87.253548 312.011902,87.070061 315.782166,86.018661 
	C320.947906,84.578133 324.121307,78.991646 323.930481,73.060921 
	C323.739227,67.115814 320.707275,61.979237 315.191223,61.241062 
	C306.271423,60.047386 297.192780,60.040794 287.756134,59.508945 
	C287.756134,65.907082 287.756134,71.206612 287.755951,77.503349 
M430.694092,80.002213 
	C433.295380,75.919167 437.295685,75.806465 441.343994,76.593216 
	C444.652618,77.236198 446.979858,79.656532 446.229156,82.979248 
	C445.915985,84.365471 442.967041,85.553658 441.013733,86.081825 
	C437.820770,86.945183 434.403137,86.957596 431.185791,87.754868 
	C425.333099,89.205177 422.173553,93.648262 422.786530,99.034882 
	C423.350494,103.990807 427.533112,107.637810 433.412537,107.525688 
	C436.824860,107.460617 440.205750,106.286301 443.625214,105.774651 
	C444.896973,105.584358 446.292999,105.649643 447.535553,105.971855 
	C449.481262,106.476387 451.344666,107.298233 452.533142,107.728630 
	C452.533142,98.633179 452.587891,90.338799 452.515167,82.045540 
	C452.460541,75.818008 450.071350,72.305191 444.026215,71.641556 
	C439.547760,71.149910 434.646820,71.599762 430.391846,73.010635 
	C427.597565,73.937172 425.618469,77.322113 423.274292,79.606102 
	C423.678070,80.407867 424.081879,81.209641 424.485687,82.011414 
	C426.445984,81.560730 428.406281,81.110046 430.694092,80.002213 
M520.312256,91.285339 
	C522.748413,91.285339 525.184631,91.285339 527.546753,91.285339 
	C528.586243,80.325935 523.265808,72.309143 514.751038,71.226097 
	C505.872559,70.096794 498.565063,75.692810 496.932526,84.871429 
	C494.899872,96.299583 499.791504,105.383156 509.053894,107.380478 
	C517.576416,109.218254 525.248535,105.172852 527.108887,97.760895 
	C524.243774,96.238678 522.011475,95.664337 519.662354,99.196915 
	C517.145386,102.981934 512.950500,103.309593 508.895142,101.587708 
	C504.619751,99.772400 502.887085,96.326752 503.176086,91.285286 
	C508.766083,91.285286 514.059631,91.285286 520.312256,91.285339 
M251.175629,64.752861 
	C251.175659,77.562843 251.280670,90.374252 251.106430,103.181862 
	C251.059296,106.646141 252.081406,107.878754 255.618851,107.756340 
	C262.431580,107.520592 269.258667,107.729408 276.078918,107.662086 
	C278.061218,107.642525 280.798584,108.512062 280.661804,104.898911 
	C280.524261,101.263916 277.687866,102.475098 275.809967,102.433128 
	C269.911957,102.301346 264.009125,102.384628 257.611633,102.384628 
	C257.611633,87.741707 257.611633,74.013313 257.611633,60.246231 
	C254.210312,59.961048 250.726593,58.589821 251.175629,64.752861 
M351.517456,67.646210 
	C351.517456,80.724327 351.517456,93.802452 351.517456,107.237480 
	C353.870483,107.237480 355.735657,107.237480 357.796906,107.237480 
	C357.796906,91.422707 357.796906,75.920898 357.796906,60.378242 
	C355.594269,60.378242 353.735260,60.378242 351.517670,60.378242 
	C351.517670,62.746475 351.517670,64.720192 351.517456,67.646210 
z"/>
<path fill="#FFFFFE" opacity="1.000000" stroke="none" 
	d="
M682.000000,34.533016 
	C555.747253,35.011341 429.494537,35.026665 303.241791,35.032761 
	C202.805710,35.037609 102.369637,35.031181 1.466781,35.014877 
	C1.000000,23.673237 1.000000,12.346475 1.000000,1.042586 
	C228.000000,1.042586 455.000000,1.042586 682.000000,1.042586 
	C682.000000,12.078792 682.000000,23.072412 682.000000,34.533016 
M88.551857,20.134020 
	C88.707993,20.214748 88.864136,20.295475 89.564499,20.536291 
	C89.605736,19.338638 92.286705,17.774633 88.596100,17.095242 
	C88.596100,17.095242 88.124115,17.210838 87.725739,17.054789 
	C87.834328,18.025707 87.942917,18.996624 88.551857,20.134020 
M12.948108,22.300594 
	C14.997616,23.985937 17.072586,26.119850 19.541960,22.102819 
	C22.988964,24.825361 25.974075,25.298773 28.359707,20.052652 
	C27.607248,18.659115 26.854790,17.265577 26.015797,15.898913 
	C26.015797,15.898913 26.040838,15.985996 26.286364,15.335097 
	C27.007858,14.675500 28.048542,14.151442 28.396061,13.333041 
	C29.971807,9.622215 27.136154,7.928695 24.675823,6.482415 
	C22.280458,5.074322 21.046173,6.463683 20.281996,8.652078 
	C17.689503,5.187641 15.155896,5.071236 12.286699,8.480662 
	C9.749332,11.495782 10.836555,13.358355 13.136014,15.174627 
	C10.754549,17.187414 9.786426,19.294748 12.948108,22.300594 
M599.956238,12.810746 
	C598.630371,7.790831 594.579773,10.551733 591.760376,10.161746 
	C590.660583,10.009631 588.288452,11.533630 588.284119,12.304303 
	C588.266479,15.422452 587.809082,19.877964 589.593933,21.398607 
	C593.827148,25.005241 599.975830,21.263676 599.996521,15.703313 
	C599.998962,15.043451 599.990784,14.383552 599.956238,12.810746 
M98.405952,20.114414 
	C100.560402,14.771070 96.453812,14.877447 93.076218,13.750749 
	C93.076218,16.353157 93.076218,18.486155 93.076218,20.903002 
	C94.933075,20.725718 96.375084,20.588041 98.405952,20.114414 
M108.538277,19.565836 
	C108.313904,17.712204 108.089531,15.858572 107.865158,14.004940 
	C107.283562,14.084445 106.701958,14.163949 106.120361,14.243453 
	C106.465309,16.210054 105.001755,18.408772 108.538277,19.565836 
M111.983421,15.603338 
	C111.872292,14.982198 111.761162,14.361057 111.650024,13.739920 
	C111.259514,13.948729 110.869011,14.157537 110.478508,14.366341 
	C110.806519,14.813176 111.134529,15.260011 111.983421,15.603338 
M103.027405,14.746662 
	C102.793365,14.549250 102.566826,14.340514 102.313248,14.172620 
	C102.288918,14.156511 101.997963,14.393447 101.996521,14.514880 
	C101.975121,16.312103 101.981766,18.109659 101.981766,19.907137 
	C102.250191,19.906427 102.518608,19.905716 102.787033,19.905006 
	C102.866547,18.490534 102.946068,17.076063 103.027405,14.746662 
M68.819168,14.554388 
	C68.819168,13.769867 68.819168,12.985346 68.819168,12.200824 
	C68.593842,12.214195 68.368515,12.227566 68.143188,12.240936 
	C68.244202,13.116142 68.345222,13.991348 68.819168,14.554388 
z"/>
<path fill="#FFFFFF" opacity="1.000000" stroke="none" 
	d="
M1.000000,128.500000 
	C227.693527,128.001175 454.387054,128.002365 681.540283,128.001770 
	C681.833313,128.333328 681.684082,128.943787 681.497192,128.955551 
	C680.169128,129.039001 678.833313,129.000000 677.500000,129.000000 
	C452.000000,129.000000 226.500000,129.000000 1.000000,128.500000 
z"/>
<path fill="#EBEAE9" opacity="1.000000" stroke="none" 
	d="
M225.995667,94.094032 
	C220.934525,86.672028 216.076126,79.547943 211.217743,72.423859 
	C210.893784,72.475365 210.569839,72.526863 210.245880,72.578369 
	C210.245880,84.037247 210.245880,95.496132 210.245880,107.273758 
	C207.831131,107.273758 206.113968,107.273758 204.143051,107.273758 
	C204.143051,91.571136 204.143051,76.158043 204.143051,60.579327 
	C208.212006,58.947002 210.753525,60.243385 213.125290,63.913029 
	C219.891052,74.381149 227.027695,84.609573 234.986359,94.855644 
	C234.986359,83.435249 234.986359,72.014854 234.986359,60.290901 
	C237.508789,60.290901 239.242004,60.290901 241.209381,60.290901 
	C241.209381,75.893921 241.209381,91.321205 241.209381,106.933098 
	C237.365540,108.480141 234.622421,107.732559 232.523590,103.966789 
	C230.666672,100.635025 228.325684,97.573036 225.995667,94.094032 
z"/>
<path fill="#EAE7E6" opacity="1.000000" stroke="none" 
	d="
M416.239502,101.639511 
	C416.239288,103.718109 416.239288,105.342178 416.239288,107.295883 
	C414.102112,107.295883 412.513947,107.295883 410.103882,107.295883 
	C410.103882,101.020966 410.104218,94.770859 410.103668,88.520752 
	C410.103546,87.188599 410.099884,85.856438 410.098358,84.524284 
	C410.093536,80.340073 409.161469,76.744942 404.117310,76.345238 
	C400.041412,76.022263 396.086060,79.307144 395.731537,83.958405 
	C395.277161,89.919548 395.523743,95.934319 395.475189,101.926041 
	C395.461914,103.563278 395.473175,105.200714 395.473175,107.232826 
	C393.365692,107.232826 391.648132,107.232826 389.165710,107.232826 
	C389.165710,100.094795 389.173584,93.008667 389.163513,85.922562 
	C389.153503,78.880074 387.599701,76.374718 383.235504,76.311829 
	C378.616943,76.245270 375.123749,79.854576 374.832245,85.643333 
	C374.539490,91.457260 374.516724,97.303963 374.765259,103.119652 
	C374.951477,107.477989 373.142944,108.427834 369.064331,107.153847 
	C369.064331,95.832008 369.064331,84.435097 369.064331,72.040070 
	C371.293488,72.753174 373.148376,73.346542 375.716400,74.168045 
	C383.895935,69.444748 388.032959,69.692688 394.317749,75.899811 
	C396.717224,74.510902 398.981995,72.765556 401.540955,71.799217 
	C408.952881,69.000259 415.864685,73.663177 416.175537,81.704063 
	C416.426208,88.188843 416.234955,94.690704 416.239502,101.639511 
z"/>
<path fill="#EAE6E7" opacity="1.000000" stroke="none" 
	d="
M489.321411,109.236084 
	C487.534088,118.334984 481.011780,122.443794 470.890533,121.235870 
	C463.789551,120.388397 460.278015,116.755478 460.648743,109.432190 
	C462.872864,110.767471 465.052826,111.507080 466.404663,112.997696 
	C470.033508,116.999077 474.358185,116.844498 478.725250,115.313911 
	C483.224762,113.736877 484.000458,109.902740 483.680969,106.226372 
	C478.085663,106.226372 472.724182,106.929985 467.701599,105.930504 
	C465.178070,105.428337 462.690796,102.163902 461.194244,99.568001 
	C456.821259,91.982857 458.496094,80.191223 464.207764,74.930046 
	C469.551086,70.008087 475.887665,69.897606 482.521393,74.071404 
	C484.938873,73.434029 486.723938,72.489120 488.297394,72.762398 
	C489.010590,72.886269 489.722687,75.427910 489.720856,76.871841 
	C489.707367,87.518852 489.513458,98.165642 489.321411,109.236084 
M476.001709,76.372345 
	C473.437897,77.240929 470.327850,77.470253 468.417023,79.103035 
	C463.516083,83.290886 463.658264,95.165573 468.183716,99.750587 
	C472.203644,103.823463 478.776550,103.189468 482.027588,98.415298 
	C486.802155,91.403816 484.194061,80.619995 476.001709,76.372345 
z"/>
<path fill="#EEE9E7" opacity="1.000000" stroke="none" 
	d="
M168.261078,107.971115 
	C161.517090,106.072876 157.653488,101.628807 157.375214,95.338966 
	C156.862747,83.756004 157.228897,72.134186 157.228897,60.247334 
	C158.757278,60.247334 160.522903,60.247334 163.064972,60.247334 
	C163.064972,65.552628 163.003891,70.794670 163.081543,76.034653 
	C163.165237,81.683876 163.071625,87.361084 163.617691,92.971344 
	C164.226181,99.222939 167.922699,102.183792 174.369232,102.441040 
	C181.785904,102.737000 185.827667,100.310875 186.738846,93.795540 
	C187.562515,87.905891 187.356750,81.863960 187.475616,75.886604 
	C187.577621,70.755928 187.496765,65.621620 187.496765,60.233250 
	C189.735748,60.233250 191.497742,60.233250 193.220047,60.233250 
	C193.220047,72.253853 193.850632,84.207092 192.997604,96.053505 
	C192.432159,103.905907 185.808548,108.558876 177.536911,108.788177 
	C174.582657,108.870064 171.611465,108.341866 168.261078,107.971115 
z"/>
<path fill="#EEECEA" opacity="1.000000" stroke="none" 
	d="
M287.756042,77.004745 
	C287.756134,71.206612 287.756134,65.907082 287.756134,59.508945 
	C297.192780,60.040794 306.271423,60.047386 315.191223,61.241062 
	C320.707275,61.979237 323.739227,67.115814 323.930481,73.060921 
	C324.121307,78.991646 320.947906,84.578133 315.782166,86.018661 
	C312.011902,87.070061 307.969849,87.253548 304.028381,87.550240 
	C300.935455,87.783058 297.810974,87.596947 294.197998,87.596947 
	C294.197998,94.448631 294.197998,100.687630 294.197998,107.261200 
	C291.951721,107.261200 290.210815,107.261200 287.755951,107.261200 
	C287.755951,97.314705 287.755951,87.409027 287.756042,77.004745 
M294.103424,67.823257 
	C294.102539,71.648087 293.979858,75.479309 294.179871,79.293602 
	C294.235138,80.347527 295.262207,82.245941 295.824402,82.238899 
	C301.264313,82.170761 306.789459,82.278519 312.110168,81.328026 
	C316.722229,80.504120 317.507721,76.339600 317.089539,72.255035 
	C316.663971,68.097969 314.189362,65.456421 310.013245,65.160080 
	C305.545441,64.843018 301.036255,64.970612 296.553253,65.131523 
	C295.727966,65.161148 294.941589,66.275139 294.103424,67.823257 
z"/>
<path fill="#EBE8E9" opacity="1.000000" stroke="none" 
	d="
M430.530334,80.330788 
	C428.406281,81.110046 426.445984,81.560730 424.485687,82.011414 
	C424.081879,81.209641 423.678070,80.407867 423.274292,79.606102 
	C425.618469,77.322113 427.597565,73.937172 430.391846,73.010635 
	C434.646820,71.599762 439.547760,71.149910 444.026215,71.641556 
	C450.071350,72.305191 452.460541,75.818008 452.515167,82.045540 
	C452.587891,90.338799 452.533142,98.633179 452.533142,107.728630 
	C451.344666,107.298233 449.481262,106.476387 447.535553,105.971855 
	C446.292999,105.649643 444.896973,105.584358 443.625214,105.774651 
	C440.205750,106.286301 436.824860,107.460617 433.412537,107.525688 
	C427.533112,107.637810 423.350494,103.990807 422.786530,99.034882 
	C422.173553,93.648262 425.333099,89.205177 431.185791,87.754868 
	C434.403137,86.957596 437.820770,86.945183 441.013733,86.081825 
	C442.967041,85.553658 445.915985,84.365471 446.229156,82.979248 
	C446.979858,79.656532 444.652618,77.236198 441.343994,76.593216 
	C437.295685,75.806465 433.295380,75.919167 430.530334,80.330788 
M434.877960,102.502525 
	C443.633789,102.098389 447.556061,97.975449 445.829407,90.656303 
	C442.284271,91.256363 438.567596,91.428345 435.207703,92.612579 
	C432.913849,93.421074 431.118134,95.642807 429.099731,97.232689 
	C430.771454,98.964714 432.443146,100.696732 434.877960,102.502525 
z"/>
<path fill="#ECE9E9" opacity="1.000000" stroke="none" 
	d="
M519.832703,91.285309 
	C514.059631,91.285286 508.766083,91.285286 503.176086,91.285286 
	C502.887085,96.326752 504.619751,99.772400 508.895142,101.587708 
	C512.950500,103.309593 517.145386,102.981934 519.662354,99.196915 
	C522.011475,95.664337 524.243774,96.238678 527.108887,97.760895 
	C525.248535,105.172852 517.576416,109.218254 509.053894,107.380478 
	C499.791504,105.383156 494.899872,96.299583 496.932526,84.871429 
	C498.565063,75.692810 505.872559,70.096794 514.751038,71.226097 
	C523.265808,72.309143 528.586243,80.325935 527.546753,91.285339 
	C525.184631,91.285339 522.748413,91.285339 519.832703,91.285309 
M504.667511,80.406273 
	C504.054016,82.138741 503.440521,83.871216 502.709351,85.935921 
	C509.438721,85.935921 515.355286,85.935921 521.440491,85.935921 
	C521.239990,81.443649 519.381531,78.411331 515.400024,76.857101 
	C511.264740,75.242859 507.990234,76.844620 504.667511,80.406273 
z"/>
<path fill="#DFDEE0" opacity="1.000000" stroke="none" 
	d="
M251.176483,64.285988 
	C250.726593,58.589821 254.210312,59.961048 257.611633,60.246231 
	C257.611633,74.013313 257.611633,87.741707 257.611633,102.384628 
	C264.009125,102.384628 269.911957,102.301346 275.809967,102.433128 
	C277.687866,102.475098 280.524261,101.263916 280.661804,104.898911 
	C280.798584,108.512062 278.061218,107.642525 276.078918,107.662086 
	C269.258667,107.729408 262.431580,107.520592 255.618851,107.756340 
	C252.081406,107.878754 251.059296,106.646141 251.106430,103.181862 
	C251.280670,90.374252 251.175659,77.562843 251.176483,64.285988 
z"/>
<path fill="#F0EFEA" opacity="1.000000" stroke="none" 
	d="
M351.517578,67.170059 
	C351.517670,64.720192 351.517670,62.746475 351.517670,60.378242 
	C353.735260,60.378242 355.594269,60.378242 357.796906,60.378242 
	C357.796906,75.920898 357.796906,91.422707 357.796906,107.237480 
	C355.735657,107.237480 353.870483,107.237480 351.517456,107.237480 
	C351.517456,93.802452 351.517456,80.724327 351.517578,67.170059 
z"/>
<path fill="#4177A4" opacity="1.000000" stroke="none" 
	d="
M13.796010,14.932664 
	C10.836555,13.358355 9.749332,11.495782 12.286699,8.480662 
	C15.155896,5.071236 17.689503,5.187641 20.723936,9.157063 
	C21.438025,11.050304 21.710175,12.438562 21.663750,13.897157 
	C20.284353,14.661070 19.223530,15.354647 17.792286,15.981133 
	C16.213247,15.586917 15.004629,15.259790 13.796010,14.932664 
z"/>
<path fill="#FFE46F" opacity="1.000000" stroke="none" 
	d="
M18.162704,16.048223 
	C19.223530,15.354647 20.284353,14.661070 21.776287,14.242929 
	C23.485210,15.007576 24.763023,15.496786 26.040838,15.985996 
	C26.040838,15.985996 26.015797,15.898913 26.040337,16.311506 
	C26.661591,17.947933 27.258307,19.171768 27.855022,20.395603 
	C25.974075,25.298773 22.988964,24.825361 19.200596,22.012794 
	C18.859232,21.922768 18.934849,21.952866 18.892696,21.664219 
	C18.295567,20.893736 17.740587,20.411900 17.096716,19.939415 
	C17.007822,19.948767 16.837502,20.003069 16.889496,19.649101 
	C17.348562,18.212828 17.755632,17.130526 18.162704,16.048223 
z"/>
<path fill="#FFD94D" opacity="1.000000" stroke="none" 
	d="
M26.163601,15.660547 
	C24.763023,15.496786 23.485210,15.007576 22.094860,14.172593 
	C21.710175,12.438562 21.438025,11.050304 21.027462,9.323874 
	C21.046173,6.463683 22.280458,5.074322 24.675823,6.482415 
	C27.136154,7.928695 29.971807,9.622215 28.396061,13.333041 
	C28.048542,14.151442 27.007858,14.675500 26.163601,15.660547 
z"/>
<path fill="#CCCCCC" opacity="1.000000" stroke="none" 
	d="
M599.971924,13.267208 
	C599.990784,14.383552 599.998962,15.043451 599.996521,15.703313 
	C599.975830,21.263676 593.827148,25.005241 589.593933,21.398607 
	C587.809082,19.877964 588.266479,15.422452 588.284119,12.304303 
	C588.288452,11.533630 590.660583,10.009631 591.760376,10.161746 
	C594.579773,10.551733 598.630371,7.790831 599.971924,13.267208 
M589.426697,19.938292 
	C590.970459,20.291187 592.500549,20.728014 594.060608,20.980560 
	C598.056396,21.627441 599.144287,19.698374 599.099792,15.914536 
	C599.058777,12.423604 598.246155,10.765218 594.380798,10.913535 
	C591.012756,11.042768 588.368286,11.244031 588.986084,15.642439 
	C589.145691,16.779064 589.096985,17.944944 589.426697,19.938292 
z"/>
<path fill="#E3F6F1" opacity="1.000000" stroke="none" 
	d="
M98.111519,20.282391 
	C96.375084,20.588041 94.933075,20.725718 93.076218,20.903002 
	C93.076218,18.486155 93.076218,16.353157 93.076218,13.750749 
	C96.453812,14.877447 100.560402,14.771070 98.111519,20.282391 
z"/>
<path fill="#417EAE" opacity="1.000000" stroke="none" 
	d="
M17.792286,15.981133 
	C17.755632,17.130526 17.348562,18.212828 16.496075,19.664284 
	C14.934451,20.576256 13.818245,21.119074 12.702038,21.661892 
	C9.786426,19.294748 10.754549,17.187414 13.466012,15.053646 
	C15.004629,15.259790 16.213247,15.586917 17.792286,15.981133 
z"/>
<path fill="#518DBC" opacity="1.000000" stroke="none" 
	d="
M12.825073,21.981243 
	C13.818245,21.119074 14.934451,20.576256 16.444080,20.018253 
	C16.837502,20.003069 17.007822,19.948767 17.103313,20.229706 
	C17.777487,20.991386 18.356167,21.472126 18.934849,21.952866 
	C18.934849,21.952866 18.859232,21.922768 18.825018,21.945854 
	C17.072586,26.119850 14.997616,23.985937 12.825073,21.981243 
z"/>
<path fill="#EAEFE4" opacity="1.000000" stroke="none" 
	d="
M108.393105,19.784424 
	C105.001755,18.408772 106.465309,16.210054 106.120361,14.243453 
	C106.701958,14.163949 107.283562,14.084445 107.865158,14.004940 
	C108.089531,15.858572 108.313904,17.712204 108.393105,19.784424 
z"/>
<path fill="#FFE97E" opacity="1.000000" stroke="none" 
	d="
M28.107365,20.224129 
	C27.258307,19.171768 26.661591,17.947933 26.083603,16.298069 
	C26.854790,17.265577 27.607248,18.659115 28.107365,20.224129 
z"/>
<path fill="#EAEFE4" opacity="1.000000" stroke="none" 
	d="
M111.722977,15.655092 
	C111.134529,15.260011 110.806519,14.813176 110.478500,14.366343 
	C110.869011,14.157537 111.259514,13.948729 111.650024,13.739918 
	C111.761162,14.361057 111.872292,14.982198 111.722977,15.655092 
z"/>
<path fill="#C97B1D" opacity="1.000000" stroke="none" 
	d="
M103.026497,15.204126 
	C102.946068,17.076063 102.866547,18.490534 102.787033,19.905006 
	C102.518608,19.905716 102.250191,19.906427 101.981766,19.907137 
	C101.981766,18.109659 101.975121,16.312103 101.996521,14.514880 
	C101.997963,14.393447 102.288918,14.156511 102.313248,14.172620 
	C102.566826,14.340514 102.793365,14.549250 103.026497,15.204126 
z"/>
<path fill="#703049" opacity="1.000000" stroke="none" 
	d="
M89.077614,17.028076 
	C92.286705,17.774633 89.605736,19.338638 89.226974,20.028866 
	C88.952171,18.690321 89.014893,17.859198 89.077614,17.028076 
z"/>
<path fill="#DBFFFF" opacity="1.000000" stroke="none" 
	d="
M88.051514,19.967543 
	C87.942917,18.996624 87.834328,18.025707 87.888794,17.474894 
	C88.051743,18.585846 88.051628,19.276695 88.051514,19.967543 
z"/>
<path fill="#FCF7E9" opacity="1.000000" stroke="none" 
	d="
M68.632706,14.710471 
	C68.345222,13.991348 68.244202,13.116142 68.143188,12.240936 
	C68.368515,12.227566 68.593842,12.214195 68.819168,12.200824 
	C68.819168,12.985346 68.819168,13.769867 68.632706,14.710471 
z"/>
<path fill="#FFE79D" opacity="1.000000" stroke="none" 
	d="
M88.301682,20.050781 
	C88.051628,19.276695 88.051743,18.585846 88.087982,17.552917 
	C88.124115,17.210838 88.596100,17.095242 88.836853,17.061659 
	C89.014893,17.859198 88.952171,18.690321 88.954865,19.948822 
	C88.864136,20.295475 88.707993,20.214748 88.301682,20.050781 
z"/>
<path fill="#294F70" opacity="1.000000" stroke="none" 
	d="
M476.369995,76.458939 
	C484.194061,80.619995 486.802155,91.403816 482.027588,98.415298 
	C478.776550,103.189468 472.203644,103.823463 468.183716,99.750587 
	C463.658264,95.165573 463.516083,83.290886 468.417023,79.103035 
	C470.327850,77.470253 473.437897,77.240929 476.369995,76.458939 
z"/>
<path fill="#2C5070" opacity="1.000000" stroke="none" 
	d="
M294.120361,67.355934 
	C294.941589,66.275139 295.727966,65.161148 296.553253,65.131523 
	C301.036255,64.970612 305.545441,64.843018 310.013245,65.160080 
	C314.189362,65.456421 316.663971,68.097969 317.089539,72.255035 
	C317.507721,76.339600 316.722229,80.504120 312.110168,81.328026 
	C306.789459,82.278519 301.264313,82.170761 295.824402,82.238899 
	C295.262207,82.245941 294.235138,80.347527 294.179871,79.293602 
	C293.979858,75.479309 294.102539,71.648087 294.120361,67.355934 
z"/>
<path fill="#345876" opacity="1.000000" stroke="none" 
	d="
M434.496399,102.465637 
	C432.443146,100.696732 430.771454,98.964714 429.099731,97.232681 
	C431.118134,95.642807 432.913849,93.421074 435.207703,92.612579 
	C438.567596,91.428345 442.284271,91.256363 445.829407,90.656303 
	C447.556061,97.975449 443.633789,102.098389 434.496399,102.465637 
z"/>
<path fill="#2E5272" opacity="1.000000" stroke="none" 
	d="
M504.895752,80.095612 
	C507.990234,76.844620 511.264740,75.242859 515.400024,76.857101 
	C519.381531,78.411331 521.239990,81.443649 521.440491,85.935921 
	C515.355286,85.935921 509.438721,85.935921 502.709351,85.935921 
	C503.440521,83.871216 504.054016,82.138741 504.895752,80.095612 
z"/>
<path fill="#FFE97E" opacity="1.000000" stroke="none" 
	d="
M18.892696,21.664219 
	C18.356167,21.472126 17.777487,20.991386 17.192207,20.220356 
	C17.740587,20.411900 18.295567,20.893736 18.892696,21.664219 
z"/>
<path fill="#FFFFFF" opacity="1.000000" stroke="none" 
	d="
M589.285339,19.517838 
	C589.096985,17.944944 589.145691,16.779064 588.986084,15.642439 
	C588.368286,11.244031 591.012756,11.042768 594.380798,10.913535 
	C598.246155,10.765218 599.058777,12.423604 599.099792,15.914536 
	C599.144287,19.698374 598.056396,21.627441 594.060608,20.980560 
	C592.500549,20.728014 590.970459,20.291187 589.285339,19.517838 
z"/>
</svg>